<?xml version="1.0" encoding="utf-8"?>
<!-- Generator: Adobe Illustrator 14.0.0, SVG Export Plug-In . SVG Version: 6.00 Build 43363)  -->
<!DOCTYPE svg PUBLIC "-//W3C//DTD SVG 1.1//EN" "http://www.w3.org/Graphics/SVG/1.1/DTD/svg11.dtd">
<svg version="1.1" id="Layer_1" xmlns="http://www.w3.org/2000/svg" xmlns:xlink="http://www.w3.org/1999/xlink" x="0px" y="0px"
	 width="595.28px" height="841.89px" viewBox="0 0 595.28 841.89" enable-background="new 0 0 595.28 841.89" xml:space="preserve">
<path fill="#FFFFFF" stroke="#000000" d="M321.668,584.213l-0.219-0.861l-8.539-3.238l-15.998-8.293l-3.638-2.166l-6.349-0.701
	l-23.272-12.625l-2.729-1.625l-7.443-1.967l-5.071,1.291l-4.175-1.256l-3.099-3.076l-3.468-4.527l0.337-4.725l3.759-9.465
	l-3.114-6.164l-3.113-6.166l-4.564-5.797l-16.383-12.834l-3.821-2.893l-2.221-8.711l-4.008-3.619l-3.452-1.438l-3.636-2.168
	l-0.555-2.178l-1.481-5.809l-2.375-3.26l-3.468-4.529l-1.463-2.721l-0.74-2.904l-0.203-3.813l1.08-1.821l8.32-3.666l3.605-4.014
	l-0.37-1.451l-6.904-2.88l-6.196-6.152l-4.562-5.797l-3.115-6.165l-2.406-9.439l-3.113-6.165l-0.556-2.178l0.708-3.273l4.178,1.255
	l5.086,1.797l2.188,2.535l2.357,0.172l2.173-0.554l1.448-0.37l-1.48-5.809l-0.74-2.903l-0.37-1.452l-3.637-2.166l-2.559-3.987
	l-0.74-2.903l-0.185-0.727l4.53-0.381l5.086,1.796l-0.925-3.63l-0.37-1.452l-2.56-3.987l-5.81-1.612l-4.177-1.254l-5.439-0.161
	l-1.449,0.37l-0.726,0.185l0.74,2.904l1.281,1.994l0.74,2.903l1.835,4.172l-1.265,1.097l-2.155,3.641l-2.899,0.739l-3.452-1.44
	l-3.266-0.713l-0.925-3.63l-0.37-1.452l-4.008-3.619l-1.633-0.357l-2.19-2.534l-1.295-5.083l-0.739-2.904l1.448-0.369l2.527-2.191
	l-0.386-4.541l-5.288-5.611l-4.546-2.708l-1.464-2.719l-1.11-4.356l-4.025-6.707l-3.653-5.254l-3.469-4.529l-2.591-10.165
	l0.677-9.452l-1.311-8.17l0.708-3.273l-2.929-5.439l-6.011-5.426l-2.189-2.535l-1.111-4.356l-4.006-3.618l-0.555-2.179l-1.295-5.082
	l-0.25-13.081l0.876-5.637l0.71-3.274l1.447-0.369l2.189,2.536l1.65,3.445l1.095,1.268l2.897-0.738l1.448-0.37l0.337-4.725
	l-0.434-13.808l0.475-13.266l-0.434-13.807l-0.386-4.541l139.604-0.016l5.437,139.34l196.764,184.905l2.189,2.535l2.406,9.439
	l1.166,2.166 M321.449,583.352l0.926,3.631l3.99,0.527l8.369,5.6l5.811,1.613l2.943,8.527l0.555,2.178l7.09,3.605l6.936,9.055
	l6.986,18.326l-0.338,4.725l1.295,5.082l96.93-13.107l0.186,0.725l1.111,4.357l2.896-0.738l4.498-6.559l2.527-2.191l-0.742-2.904
	l-2.912-2.35l-4.715-0.346l-0.557-2.178l-0.369-1.451l3.791-3.287l1.23-7.273l-1.697-12.713l-0.234-9.99l1.418-6.549l1.602-5.82
	l6.873-3.297l5.055-4.383l1.078-1.82l-0.371-1.451l-2.189-2.537l-2.543-0.896l-2.004-1.809l-1.279-1.994l-2.912-2.35l-2.189-2.535
	l-1.65-3.445l-0.297-0.553"/>
</svg>
